<?xml version="1.0" encoding="UTF-8"?>
<svg id="Capa_1" xmlns="http://www.w3.org/2000/svg" version="1.1" viewBox="0 0 94.18 90.69">
  <!-- Generator: Adobe Illustrator 30.6.0, SVG Export Plug-In . SVG Version: 2.1.4 Build 109)  -->
  <defs>
    <style>
      .st0 {
        fill: #5a5d66;
      }

      .st1 {
        fill: #a48c14;
      }

      .st2 {
        fill: #90949a;
      }

      .st3 {
        fill: #bcc0c7;
      }

      .st4 {
        fill: #f5df36;
      }

      .st5 {
        fill: #23232b;
      }

      .st6 {
        fill: #40434d;
      }
    </style>
  </defs>
  <path class="st5" d="M87.6,86.54v.9H6.85l-.09-.82c-.07-.65-.27-.84-.92-.92-.64-.07-.82-.25-.82-.8s-.18-.73-.82-.8l-.82-.1-.07-38.8-.08-38.81.83-.09c.59-.07.85-.29.92-.77.07-.49.3-.67.82-.67.61,0,.73-.15.73-.9v-.9h81.09v.9c0,.8.1.9.9.9.76,0,.9.12.9.75,0,.6.15.75.75.75h.75v77.8h-.75c-.6,0-.75.15-.75.75,0,.63-.14.75-.9.75-.8,0-.9.1-.9.9ZM10.16,83.23l.23.61h36.34c19.99,0,36.55-.08,36.81-.18.26-.1.47-.37.47-.61s.4-.57.9-.75c.66-.23.9-.5.9-1.03,0-.6.15-.72.9-.72h.9v-35.83c0-19.71-.11-35.98-.23-36.17-.12-.19-.49-.39-.82-.45-.39-.07-.63-.39-.69-.93l-.09-.82H8.35l-.09.82c-.07.57-.29.85-.74.91-.44.07-.69.37-.82,1.01-.1.51-.18,16.79-.18,36.19v35.27h.88c.68,0,.9.15.97.66.05.37.43.83.83,1.03.4.2.84.64.96.98ZM60.21,39.79c-.07.21-.39.37-.73.37-.54,0-.61-.19-.61-1.65v-1.65h-8.38v-1.65c0-1.63,0-1.65.9-1.65h.9v-1.8c0-1.71.03-1.8.75-1.8s.75-.09.75-1.65,0-1.65.9-1.65.9-.01.9-1.65v-1.65l-11.82.16-.09,1.57c-.09,1.53-.12,1.57-1,1.57s-.9,0-.82,1.57c.08,1.51.05,1.57-.73,1.67-.77.09-.81.17-.81,1.72s0,1.62-.91,1.62h-.91l.09-1.57c.08-1.46.15-1.58.9-1.66.75-.09.81-.21.9-1.65.08-1.35.18-1.56.76-1.65.7-.1.82-.51.69-2.37-.06-.9,0-.97.83-.97.76,0,.92-.13.99-.82l.1-.82,6.66-.08,6.66-.08v2.55c0,2.52,0,2.55-.75,2.55s-.75.09-.75,1.62-.04,1.63-.82,1.72c-.78.09-.83.19-.91,1.82-.08,1.6-.14,1.72-.82,1.72-.58,0-.73.15-.73.75,0,.72.07.75,2.02.77,1.11.01,2.97,0,4.14-.02l2.12-.04-.12,2.19c-.07,1.2-.17,2.35-.24,2.56ZM43.62,48.81c0,1.42-.05,1.52-.73,1.52-.89,0-.93-.07-.92-1.94,0-1.41.05-1.5.83-1.59.66-.07.82-.25.82-.85,0-.75-.02-.76-2.32-.69-1.27.04-3.5.05-4.94.03l-2.62-.04v-2.54c0-2.51,0-2.54.75-2.54s.75-.09.75-1.65.01-1.65.88-1.65.89-.04.97-1.72c.08-1.49.17-1.72.69-1.72s.61.23.69,1.72c.09,1.67.07,1.72-.67,1.72s-.76.08-.76,1.65,0,1.65-.9,1.65-.9.02-.9,1.65v1.65h10.17v1.58c0,1.48-.06,1.6-.9,1.92-.83.32-.9.45-.9,1.86ZM43.62,61.25c0,.74-.03.75-2.54.75h-2.54v-6.58h1.8v-5.09h1.65l-.03,2.47c-.03,2.43-.04,2.47-.82,2.56-.78.09-.79.11-.79,2.64v2.54l.82-.09c.7-.08.81-.22.73-.92-.09-.74,0-.82.82-.82.78,0,.92-.11.92-.75s.14-.75.9-.75c.8,0,.9-.1.9-.9,0-.75.12-.9.71-.9.97,0,1.59.75,1.04,1.26-.22.21-.67.38-1,.38-.61,0-.65.13-.72,2.47-.03.87-.12.97-.93.97-.76,0-.9.12-.9.75ZM48.7,54.45c0,.67-.14.83-.75.86-.71.04-.75-.04-.75-1.57s.04-1.61.75-1.61c.63,0,.75-.14.75-.9,0-.8.1-.9.9-.9s.9-.1.9-.9.1-.9.9-.9.9-.1.9-.9c0-.76.12-.9.75-.9.71,0,.75-.09.75-1.65s0-1.65.9-1.65c.76,0,.9-.12.9-.75,0-.6.15-.75.75-.75.63,0,.75-.14.75-.92,0-.85.07-.91.95-.82.8.08.95.22.98.92.03.74-.07.82-.97.82s-1,.08-.95.82c.14,2.08.02,2.47-.74,2.47-.57,0-.75.18-.82.82-.07.65-.27.84-.92.92-.65.07-.82.25-.82.82s-.16.73-.73.73-.75.18-.82.82c-.07.65-.25.82-.84.83-.7,0-.75.11-.84,1.72-.09,1.68-.11,1.71-.97,1.71-.76,0-.88.11-.88.82Z"/>
  <path class="st6" d="M10.16,83.23c-.13-.34-.56-.78-.96-.98-.4-.2-.78-.66-.83-1.03-.07-.51-.29-.66-.97-.66h-.88v-35.27c0-15.55.05-29.11.13-34.13.13.39.44.47,1.52.58,1.27.13,1.51.25,1.59.82.08.58.28.67,1.39.67.73,0,1.44.18,1.63.41.25.31.34,7.74.32,28.43-.01,15.41.06,28.15.16,28.31.1.16.5.3.88.3.53,0,.74.21.87.9.14.71.34.9.94.9s.75.15.75.75c0,.63.14.75.9.75s.9.12.9.7c0,.39.08.78.19.89.1.1,12.6.2,27.76.21l27.58.02.86-.9c.54-.57,1.17-.9,1.68-.9.61,0,.86-.18.99-.73.13-.51.42-.76,1-.82.65-.07.82-.25.82-.84,0-.55.19-.77.68-.84.37-.05.7-.25.74-.45s.07-12.92.07-28.28c0-27.57.02-27.93.61-28.37.33-.24.93-.38,1.33-.31,1.06.2,1.51-.07,1.51-.88,0-.74.02-.75,2.24-.83.54-.02.78-.11.9-.41.08,5.41.14,18.46.14,33.51v35.83s-.89,0-.89,0c-.75,0-.9.12-.9.72,0,.53-.24.8-.9,1.03-.49.17-.9.51-.9.75s-.21.51-.47.61c-.26.1-16.83.18-36.81.18H10.38l-.23-.61ZM6.66,10.09c.01-.59.03-.93.04-1,.13-.64.38-.95.82-1.01.45-.06.67-.34.74-.91l.09-.82h74.45l-35.85.07-36.99.07-.1.82c-.07.64-.25.82-.8.82s-.73.18-.8.82c-.07.65-.27.84-.94.92-.34.04-.55.09-.66.21ZM60.21,39.79c.07-.21.18-1.36.24-2.56l.12-2.19-2.12.04c-1.17.02-3.03.03-4.14.02,1.11.01,2.98,0,4.15-.02l2.14-.04-.1,2.94c-.1,3.05-.1,3.77-.4,3.94-.09.05-.22.05-.38.04h-.12c-.54,0-.73.16-.73.61,0,.41-.29.72-.9.93-.48.17-.74.36-.84.65,0-.34,0-.79-.05-1.37-.05-.75.04-.82.95-.82s1-.08.97-.82c-.03-.7-.18-.84-.98-.92-.23-.02-.4-.04-.53-.03.12-.02.28-.03.48-.03.89,0,.9-.02.9-1.65,0,1.45.07,1.65.61,1.65.34,0,.66-.17.73-.37ZM83.94,6.35h1.83l.09.82c.06.54.3.86.69.93.33.06.7.26.82.45.02.03.04.58.06,1.56-.12-.13-.34-.2-.72-.28-.73-.15-.91-.34-.91-.94s-.15-.76-.75-.76-.79-.19-.94-.9l-.18-.9ZM50.54,52.19c0-.09,0-.18.01-.28.08-1.61.14-1.72.84-1.72.59,0,.77-.18.84-.83.07-.65.25-.82.82-.82s.73-.16.73-.73c0-.26.04-.44.14-.57-.11.15-.14.39-.14.81,0,.53.16,1.13.35,1.32.43.43-.36.81-1.23.58-.6-.16-.91.29-.91,1.3,0,.41-.21.57-.75.57-.44,0-.63.07-.7.36ZM45.45,59.13c.07-1.95.13-2.07.71-2.07.33,0,.78-.17,1-.38.55-.52-.07-1.26-1.04-1.26-.15,0-.27,0-.37.04.1-.07.23-.12.39-.16.62-.16.77-.42.94-1.68.05-.37.09-.66.14-.87-.02.23-.02.55-.02.99,0,1.54.04,1.61.75,1.57.41-.02.6-.1.69-.36-.08.33-.22.63-.39.76-.25.2-.45.54-.45.75s-.2.46-.45.55c-.25.1-.45.43-.45.75,0,.37-.28.64-.75.76-.42.11-.63.26-.71.6ZM45.42,56.01c0,.09,0,.19,0,.31,0,.8-.1.9-.9.9-.33,0-.54.02-.68.1.13-.21.36-.3.75-.34.63-.07.82-.25.82-.79,0-.06,0-.12,0-.17ZM50.05,53.6c.29-.05.39-.22.45-.78,0,.54-.08.72-.45.78ZM57.07,44.74c-.04.39-.23.51-.72.51.39,0,.62-.11.72-.51ZM43.6,58.3c-.06.34-.28.42-.9.42.56,0,.79-.08.9-.42ZM48.7,54.45c0-.34.03-.55.14-.67-.12.12-.14.34-.14.71,0,.03,0,.06,0,.08,0-.04,0-.08,0-.12ZM48.53,52c.13-.12.17-.36.17-.77,0,.42-.04.65-.17.77ZM42.7,58.71c-.47,0-.7.03-.8.19.09-.16.32-.19.77-.19h.02Z"/>
  <path class="st0" d="M72.34,73.07v.9H21.77v-.9c0-.8-.1-.9-.9-.9s-.9-.1-.9-.9c0-.76-.12-.9-.75-.9-.6,0-.75-.15-.75-.75,0-.63-.14-.75-.9-.75h-.9V13.23h.9c.8,0,.9-.1.9-.9,0-.76.12-.9.75-.9.6,0,.75-.15.75-.75,0-.51.17-.75.52-.76.29,0,12.17,0,26.41,0,14.24,0,26.18,0,26.56,0,.52,0,.67.17.67.75s.15.75.75.75c.63,0,.75.14.75.9,0,.8.1.9.9.9h.9v55.66h-.9c-.76,0-.9.12-.9.75,0,.6-.15.75-.75.75-.63,0-.75.14-.75.9,0,.8-.1.9-.9.9s-.9.1-.9.9ZM43.62,61.25c0-.63.14-.75.9-.75.72,0,.87-.08.92-.71.05.35.22.42.66.36.43-.06.71-.34.77-.77.08-.55-.05-.67-.67-.67-.29,0-.48.03-.6.13.12-.14.3-.23.57-.3.47-.12.75-.4.75-.76,0-.32.2-.65.45-.75.25-.09.45-.34.45-.55s.2-.55.45-.75c.17-.14.31-.44.39-.76.03-.1.05-.22.05-.39,0-.03,0-.06,0-.08,0-.37.03-.58.14-.71.07-.08.19-.12.35-.14h0c.1-.01.23-.02.38-.02h.04c.18,0,.32,0,.43-.02.37-.06.44-.24.45-.78h0v.06c0,.77.43.94,1.17.48.57-.37.18-1.22-.56-1.22-.36,0-.53.13-.59.46,0-.12.01-.25.02-.4.07-.29.27-.36.7-.36.54,0,.75-.16.75-.57,0-1.01.31-1.46.91-1.3.87.23,1.67-.15,1.23-.58-.19-.19-.35-.79-.35-1.32,0-.41.03-.66.14-.81.12-.15.33-.22.68-.25.65-.07.84-.27.92-.92.02-.17.04-.31.08-.42-.02.1-.03.21-.03.34,0,.56.16.75.62.75.34,0,.53-.13.43-.3s-.03-.3.15-.3c.2,0,.16-.18-.11-.45-.25-.25-.47-.39-.64-.42.09-.02.19-.03.32-.03.49,0,.67-.12.72-.51.04-.15.06-.35.07-.59.04-.11.1-.21.18-.29-.14.2-.19.46-.1.75.24.74.45.78,1.2.23.34-.25.48-.6.37-.9-.13-.34-.39-.49-.67-.5.51-.21.77-.49.77-.88,0-.21.04-.36.14-.45-.1.11-.14.3-.14.59,0,.6.15.75.75.75s.75-.15.75-.75-.14-.74-.68-.75h.04c.16,0,.29,0,.38-.04.31-.17.31-.89.4-3.94l.1-2.94-2.14.04c-1.17.02-3.04.03-4.15.02h0c-1.95-.02-2.02-.05-2.02-.77,0-.6.15-.75.73-.75.68,0,.74-.12.82-1.72.08-1.63.13-1.73.91-1.82.78-.09.82-.17.82-1.72s.04-1.62.75-1.62.75-.03.75-2.55v-2.55l-6.66.08-6.66.08-.1.82c-.08.69-.23.82-.99.82-.83,0-.9.07-.83.97.13,1.86,0,2.27-.69,2.37-.59.08-.69.3-.76,1.65-.08,1.44-.15,1.56-.9,1.65-.75.09-.81.21-.9,1.66l-.09,1.57h.91c.19,0,.34,0,.46-.02-.12.05-.27.09-.46.13-.85.17-.88.24-.88,1.83,0,.46,0,.8-.03,1.04,0-.25,0-.61-.03-1.11-.08-1.49-.17-1.72-.69-1.72s-.61.23-.69,1.72c-.09,1.68-.11,1.72-.97,1.72s-.88.02-.88,1.65-.04,1.65-.75,1.65-.75.03-.75,2.54v2.54l2.62.04c.17,0,.35,0,.54,0-1.98.03-2.56.13-2.56.38,0,.57.69.77,2.73.77,1.12,0,1.72-.11,1.6-.3-.11-.17.2-.3.75-.3s.86.13.75.3c-.1.17.15.3.6.3.54,0,.72-.12.57-.37-.12-.21.04-.14.34.15.31.29.69.52.86.52.17,0,.11-.13-.14-.29-.38-.25-.37-.29.07-.29.29,0,.52.13.52.29,0,.12.07.23.18.28-.11.04-.24.06-.4.08-.77.09-.82.18-.83,1.59,0,1.86.03,1.94.91,1.94-.52,0-.79.19-.92.86v-.86s-1.63,0-1.63,0v5.09h-1.8v6.58h2.54c2.51,0,2.54,0,2.54-.75ZM6.66,10.09c.11-.12.32-.17.66-.21.66-.07.86-.27.94-.92.07-.64.25-.82.8-.82s.73-.18.8-.82l.1-.82,10.02-.02v.77c0,.89-.02.9-1.65.9-1.54,0-1.65.04-1.65.72,0,.56-.2.77-.9.92-.86.19-.9.26-.9,1.82s-.04,1.62-.75,1.62h-.75v55.66h.75c.69,0,.75.11.75,1.32,0,.47.01.85.06,1.16-.14-.52-.35-.69-.83-.69-.38,0-.77-.13-.88-.3-.1-.16-.17-12.91-.16-28.31.02-20.69-.07-28.12-.32-28.43-.19-.23-.9-.41-1.63-.41-1.11,0-1.3-.09-1.39-.67-.08-.57-.32-.7-1.59-.82-1.08-.11-1.39-.19-1.52-.58,0-.41.01-.77.02-1.06ZM83.94,6.35l.18.9c.14.71.34.9.94.9s.75.15.75.76.19.79.91.94c.37.07.59.15.72.28,0,.32.01.69.02,1.1-.12.3-.36.39-.9.41-2.22.08-2.24.09-2.24.83,0,.81-.46,1.08-1.51.88-.4-.07-1,.06-1.33.31-.57.42-.6.77-.61,26.02-.07-12.05-.14-22.65-.14-23.94,0-2.31-.04-2.45-.68-2.54-.59-.08-.69-.3-.76-1.65-.08-1.44-.15-1.56-.9-1.65-.63-.07-.83-.27-.9-.92-.09-.78-.17-.82-1.72-.82s-1.62,0-1.62-.9v-.88l8.66-.02h1.14ZM38.59,62.94l-.09.79,2.48-.04c2.42-.04,2.49-.06,2.56-.79.06-.67.04-.69-.2-.15-.23.51-.28.52-.29.08-.03-.64-.96-.89-2.88-.77-1.34.08-1.48.16-1.57.88ZM20.35,75.57c.21.08,12.37.16,27.02.17l26.65.02h-.01s-27.58,0-27.58,0c-15.17,0-27.66-.1-27.76-.21-.1-.1-.19-.5-.19-.89,0-.57-.16-.7-.9-.7-.46,0-.69-.04-.8-.22.13.17.45.17,1.18.11,1.66-.13,2.02.03,2.02.86,0,.38.17.76.37.84ZM80.82,66.71c0,2.22-.02,3.52-.03,3.58-.04.19-.37.39-.74.45-.49.07-.67.3-.68.84,0,.13-.01.24-.03.33-.03-.06-.07-.13-.13-.19-.17-.21-.22-.89-.11-1.6.16-1.02.31-1.23.87-1.23.61,0,.68-.16.85-2.18ZM52.29,51.08c0,.6.15.75.75.75s.75-.15.75-.75-.15-.75-.75-.75-.75.15-.75.75ZM49,54.52c0,.4.2.6.6.6.45,0,.6-.2.6-.78s-.12-.73-.47-.6c-.26.1-.53.18-.6.18s-.13.27-.13.6ZM47.36,58.41c.28.45.56.37.96-.28.28-.45.28-.6,0-.7-.47-.16-1.21.58-.96.97ZM41.89,29.08c.04.62-.1.77-.67.9-.66.16-.76.36-.84,1.7-.02.36-.04.64-.07.85.01-.22.01-.51.01-.88,0-1.55.04-1.63.81-1.72.6-.07.76-.13.76-.85ZM54.16,26.72c.11-.04.26-.06.45-.08.77-.09.83-.2.91-1.67l.06-1.03v1.1c0,1.64,0,1.65-.9,1.65-.23,0-.4,0-.52.03ZM35.24,42.91v-1.1c0-1.63,0-1.65.9-1.65.23,0,.4,0,.53-.03-.11.04-.26.06-.45.08-.77.09-.83.2-.91,1.67l-.06,1.03ZM43.34,26.61c-.11.07-.26.08-.47.08-.63,0-.98.43-1.03,1.3-.07-1.29-.01-1.3.83-1.3.32,0,.52,0,.66-.08ZM40,45.28c.48,0,.93-.01,1.3-.03,1.13-.03,1.71-.05,2.01.03h-3.31ZM41.91,54.11c.01,1.12-.1,1.17-.77,1.25-.27.03-.45.05-.57.16.12-.11.29-.13.55-.16.6-.07.75-.11.79-1.25ZM15.12,72.03c.16.33.43.45.85.45.28,0,.45.04.57.15-.11-.11-.3-.15-.6-.15-.45,0-.67-.1-.81-.45ZM78.19,72.5c-.34.12-.54.35-.64.75-.07.29-.18.48-.35.59.18-.11.28-.31.36-.61.11-.43.3-.66.63-.72ZM55.58,23.39l-11.82.16,11.82-.16ZM59.46,41.96s.09,0,.15,0h0c-.06,0-.11,0-.16,0Z"/>
  <path class="st2" d="M20.35,75.57c-.21-.08-.37-.46-.37-.84,0-.83-.36-.98-2.02-.86-.73.05-1.05.06-1.18-.11-.07-.11-.09-.28-.09-.51h0v-.02c0-.3-.04-.48-.15-.59s-.29-.15-.57-.15c-.42,0-.69-.12-.85-.45-.05-.12-.09-.27-.13-.45-.01-.08-.03-.15-.05-.21-.04-.31-.06-.69-.06-1.16,0-1.21-.06-1.32-.75-1.32h-.75V13.23h.75c.71,0,.75-.09.75-1.62s.04-1.63.9-1.82c.7-.15.9-.36.9-.92,0-.68.1-.72,1.65-.72,1.63,0,1.65,0,1.65-.9v-.77l54.16-.11v.88c0,.89.02.9,1.62.9s1.63.04,1.72.82c.07.64.27.84.9.92.75.09.81.21.9,1.65.08,1.35.18,1.56.76,1.65.63.09.67.23.68,2.54,0,1.29.06,11.89.14,23.94v2.35c0,10.54-.02,19.84-.04,24.7-.16,2.01-.24,2.18-.85,2.18-.56,0-.71.21-.87,1.23-.11.71-.07,1.39.11,1.6.06.07.1.13.13.19-.07.34-.29.45-.79.51-.13.01-.26.04-.36.08-.33.07-.53.29-.63.72-.08.31-.18.5-.36.61-.15.1-.36.13-.64.13-.51,0-1.13.34-1.68.9l-.85.89-26.65-.02c-14.66-.01-26.82-.09-27.02-.17ZM72.34,73.07c0-.8.1-.9.9-.9s.9-.1.9-.9c0-.76.12-.9.75-.9.6,0,.75-.15.75-.75,0-.63.14-.75.9-.75h.9V13.23h-.9c-.8,0-.9-.1-.9-.9,0-.76-.12-.9-.75-.9-.6,0-.75-.15-.75-.75s-.16-.75-.67-.75c-.37,0-12.32,0-26.56,0-14.24,0-26.12,0-26.41,0-.36,0-.52.25-.52.76,0,.6-.15.75-.75.75-.63,0-.75.14-.75.9,0,.8-.1.9-.9.9h-.9v55.66h.9c.76,0,.9.12.9.75,0,.6.15.75.75.75.63,0,.75.14.75.9,0,.8.1.9.9.9s.9.1.9.9v.9h50.57v-.9ZM40,45.28h3.31c.3.09.31.28.31.66,0,.45-.09.66-.42.77-.1-.05-.18-.15-.18-.28,0-.16-.24-.3-.52-.29-.45,0-.46.04-.07.29.25.16.31.29.14.29-.17,0-.56-.23-.86-.52-.31-.29-.46-.36-.34-.15.14.26-.04.37-.57.37-.45,0-.7-.13-.6-.3.11-.17-.2-.3-.75-.3s-.86.13-.75.3c.12.19-.49.3-1.6.3-2.05,0-2.73-.19-2.73-.77,0-.25.57-.35,2.56-.38.95,0,2.11,0,3.1-.01ZM38.59,62.94c.08-.72.22-.8,1.57-.88,1.92-.12,2.86.13,2.88.77.02.44.06.43.29-.08.25-.54.27-.52.2.15-.07.73-.13.75-2.56.79l-2.48.04.09-.79ZM57.22,44.61c-.09-.29-.04-.55.1-.75.14-.14.36-.26.66-.36.04-.01.09-.03.13-.05.28,0,.54.16.67.5.12.3-.02.65-.37.9-.75.55-.96.51-1.2-.23ZM52.29,51.08c0-.6.15-.75.75-.75s.75.15.75.75-.15.75-.75.75-.75-.15-.75-.75ZM59.46,41.96h0s.1,0,.16,0h.07c.54.01.68.17.68.75s-.15.75-.75.75-.75-.15-.75-.75c0-.29.04-.48.14-.59.1-.09.24-.14.44-.15ZM45.45,59.13c.03-.12.07-.22.13-.3.12-.1.31-.13.6-.13.63,0,.75.13.67.67-.06.43-.34.71-.77.77-.44.06-.61,0-.66-.36,0-.08,0-.17.01-.26,0-.14,0-.28.01-.4ZM50.5,52.88v-.07c0-.07.01-.14.02-.22.05-.34.23-.46.59-.46.74,0,1.13.86.56,1.22-.74.47-1.17.29-1.17-.48ZM49,54.52c0-.33.06-.6.13-.6s.34-.08.6-.18c.36-.13.47.01.47.6s-.15.78-.6.78c-.4,0-.6-.2-.6-.6ZM55.58,45.99c0-.13.01-.25.03-.34.08-.22.2-.33.42-.38.17.03.39.17.64.42.27.27.31.45.11.45-.19,0-.25.13-.15.3s-.09.3-.43.3c-.46,0-.62-.19-.62-.75ZM47.36,58.41c-.24-.39.49-1.13.96-.97.28.09.28.25,0,.7-.4.64-.69.72-.96.28Z"/>
  <path class="st1" d="M43.62,48.81c0-1.42.06-1.54.9-1.86.84-.32.9-.44.9-1.92v-1.58h-10.17v-.54l.06-1.03c.08-1.47.15-1.58.91-1.67.19-.02.34-.04.45-.08.37-.08.37-.4.37-1.62,0-1.56.04-1.65.76-1.65.52,0,.68-.03.71-.61.02-.24.03-.57.03-1.04,0-1.59.03-1.66.88-1.83.19-.04.34-.07.46-.13.31-.04.41-.19.44-.72.03-.21.05-.49.07-.85.08-1.35.18-1.55.84-1.7.57-.13.71-.28.67-.9,0-.21-.01-.48-.03-.82,0-.1-.01-.19-.01-.28.05-.87.39-1.3,1.03-1.3.21,0,.36-.01.47-.08.25-.14.28-.51.34-1.49l.09-1.57,5.92-.08,5.89-.08v.55l-.06,1.03c-.08,1.47-.14,1.58-.91,1.67-.19.02-.34.04-.45.08-.37.08-.37.4-.37,1.62,0,1.56-.04,1.65-.75,1.65s-.75.08-.75,1.8v1.8h-.9c-.89,0-.9.02-.9,1.65v1.65h8.38v1.65c0,1.63,0,1.65-.9,1.65-.2,0-.36,0-.48.03-.38.02-.42.22-.42.85,0,.78-.11.92-.75.92-.6,0-.75.15-.75.75,0,.63-.14.75-.9.75-.89,0-.9.02-.9,1.65s-.04,1.65-.75,1.65c-.63,0-.75.14-.75.9,0,.8-.1.9-.9.9s-.9.1-.9.9-.1.9-.9.9-.9.1-.9.9c0,.41-.04.65-.17.77-.11.1-.29.13-.58.13-.5,0-.67.05-.72.63-.05.21-.1.49-.14.87-.17,1.26-.31,1.52-.94,1.68-.16.04-.29.09-.39.16-.22.06-.31.22-.34.55,0,.05,0,.11,0,.17,0,.54-.19.72-.82.79-.39.04-.62.14-.75.34-.17.1-.22.29-.22.65,0,.13,0,.24-.02.33-.11.34-.34.41-.9.42h-.02c-.45,0-.68.03-.77.19h0c-.07.12-.07.32-.03.64.08.7-.02.84-.73.92l-.82.09v-2.54c0-1.69,0-2.26.24-2.47.12-.11.3-.13.57-.16.68-.08.79-.13.77-1.25.01-.33.02-.76.03-1.31l.02-1.6c.12-.68.4-.86.92-.86h.01c.68,0,.73-.11.73-1.52ZM42.1,57.14s.36.07.77.07c.63,0,.75-.14.75-.9,0-.8.1-.9.9-.9s.9-.1.9-.9c0-.76.12-.9.75-.9.71,0,.75-.09.75-1.65s0-1.65.9-1.65c.8,0,.9-.1.9-.9s.1-.9.9-.9.9-.1.9-.9.1-.9.9-.9c.89,0,.9-.02.9-1.65s.04-1.65.75-1.65c.6,0,.75-.15.75-.75,0-.63.14-.75.9-.75.8,0,.9-.1.9-.9,0-.76.12-.9.75-.9s.75-.14.75-.85v-.85l-8.23.05v-5.09l.82-.1c.78-.09.82-.17.82-1.72s0-1.62.9-1.62.9-.02.9-1.65.04-1.65.75-1.65c.63,0,.75-.14.75-.9v-.9h-8.38v.9c0,.8-.1.9-.9.9-.89,0-.9.02-.9,1.62s-.04,1.63-.82,1.72c-.77.09-.83.2-.91,1.67-.08,1.44-.15,1.57-.82,1.57s-.73.09-.73,1.8v1.8h-.9c-.89,0-.9.02-.9,1.65s-.04,1.65-.75,1.65c-.63,0-.75.14-.75.9v.9h8.38v.73c0,.57.18.75.82.82.57.07.81.26.79.62-.02.29-.06.99-.08,1.57-.03.9-.14,1.05-.77,1.05-.68,0-.74.12-.82,1.72-.08,1.63-.13,1.73-.91,1.82l-.82.09v5.05h-.91c-.83,0-.9.07-.77.82.07.45.15.86.16.9Z"/>
  <path class="st3" d="M85.19,90.53c-2.34.25-75.1.18-76.73-.07-.84-.13-1.28-.38-1.49-.84-.17-.38-.61-.7-1.04-.75-.47-.06-.8-.31-.86-.67-.06-.32-.67-1.09-1.35-1.71-.68-.62-1.37-1.25-1.54-1.4-.51-.47-1.28-1.47-1.7-2.2-.32-.57-.41-7.41-.47-36.6C-.03,24.93.06,9.68.22,8.64c.28-1.72.34-1.8,3.61-5C5.67,1.85,7.46.29,7.8.18,8.15.08,26.07,0,47.63,0h39.21s.6.74.6.74c.33.4.84.81,1.13.91.29.1.52.37.52.6,0,.55,1.94,2.53,2.61,2.65.29.05.66.39.82.75.16.36.6.79.97.96l.69.31v75.74l-.67.67c-.37.37-.84,1.04-1.04,1.48-.2.44-.57.81-.83.81s-.59.34-.75.75-.48.75-.72.75-.62.37-.83.82c-.23.47-.69.86-1.08.92-.38.05-.8.4-.95.78-.22.57-.55.71-2.12.87ZM87.6,86.54c0-.8.1-.9.9-.9.76,0,.9-.12.9-.75,0-.6.15-.75.75-.75h.75V6.35h-.75c-.6,0-.75-.15-.75-.75,0-.63-.14-.75-.9-.75-.8,0-.9-.1-.9-.9v-.9H6.51v.9c0,.75-.12.9-.73.9-.53,0-.75.19-.82.67-.07.48-.33.7-.92.77l-.83.09.08,38.81.07,38.8.82.1c.64.07.82.25.82.8s.18.73.82.8c.65.07.84.27.92.92l.09.82h80.75v-.9Z"/>
  <path class="st4" d="M42.1,57.14s-.09-.45-.16-.9c-.12-.75-.05-.82.77-.82h.91v-5.05l.82-.09c.78-.09.83-.19.91-1.82.08-1.6.14-1.72.82-1.72.63,0,.74-.15.77-1.05.02-.58.06-1.28.08-1.57.02-.36-.22-.55-.79-.62-.65-.07-.82-.25-.82-.82v-.73h-8.38v-.9c0-.76.12-.9.75-.9.71,0,.75-.09.75-1.65s0-1.65.9-1.65h.9v-1.8c0-1.71.04-1.8.73-1.8s.74-.13.82-1.57c.08-1.47.15-1.58.91-1.67.78-.09.82-.17.82-1.72s0-1.62.9-1.62c.8,0,.9-.1.9-.9v-.9h8.38v.9c0,.76-.12.9-.75.9-.71,0-.75.09-.75,1.65s0,1.65-.9,1.65-.9.02-.9,1.62-.04,1.63-.82,1.72l-.82.1v5.09l8.23-.05v.85c0,.7-.13.85-.75.85s-.75.14-.75.9c0,.8-.1.9-.9.9-.76,0-.9.12-.9.75,0,.6-.15.75-.75.75-.71,0-.75.09-.75,1.65s0,1.65-.9,1.65c-.8,0-.9.1-.9.9s-.1.9-.9.9-.9.1-.9.9-.1.9-.9.9c-.89,0-.9.02-.9,1.65s-.04,1.65-.75,1.65c-.63,0-.75.14-.75.9,0,.8-.1.9-.9.9s-.9.1-.9.9c0,.76-.12.9-.75.9-.41,0-.76-.03-.77-.07Z"/>
</svg>